<svg id="amsterdam" enable-background="new 0 0 300 300" height="512" viewBox="0 0 300 300" width="512" xmlns="http://www.w3.org/2000/svg"><path d="m175.25 111.027c.781.781 1.805 1.172 2.828 1.172s2.047-.391 2.828-1.172l56.156-56.156c1.562-1.562 1.562-4.094 0-5.656l-12.031-12.031c-1.562-1.562-4.094-1.562-5.656 0l-60.553 60.552-7.388-5.708c-1.48-1.145-3.559-1.109-5 .086l-5.944 4.933-.878-.878 9.205-9.207c1.562-1.562 1.562-4.094 0-5.656l-56.157-56.158c-1.5-1.5-4.156-1.5-5.656 0l-12.033 12.036c-1.562 1.562-1.562 4.094 0 5.656l56.156 56.156h.001l3.18 3.18-2.696 2.238c-2.962 2.455-5.5 5.306-7.594 8.49-.634-.4-1.334-.682-2.095-.682-1.061 0-2.078.422-2.828 1.172l-56.156 56.156c-1.562 1.562-1.562 4.094 0 5.656l12.033 12.035c.75.75 1.768 1.172 2.828 1.172s2.078-.422 2.828-1.172l42.117-42.117.73-.73c-3.678 21.981-10.505 41.532-20.359 58.21-.257.435-.397.902-.477 1.371h-32.055c-1.469 0-2.82.805-3.52 2.098s-.631 2.867.174 4.094l7.877 12.016c.74 1.129 1.998 1.809 3.346 1.809h13.008l17.428 19.742c.248.281.568.442.869.637v27.605c0 2.211 1.791 4 4 4h72c2.211 0 4-1.789 4-4v-27.527l17.805-20.457h6.316c1.348 0 2.605-.68 3.344-1.805l7.879-12.016c.809-1.23.875-2.805.176-4.098s-2.051-2.098-3.52-2.098h-23.626c-.008-.014-.007-.029-.015-.043-4.587-7.905-8.553-16.59-11.958-25.833l21.173 21.173c.781.781 1.805 1.172 2.828 1.172s2.047-.391 2.828-1.172l12.035-12.031c.378-.378.67-.824.87-1.309.399-.972.399-2.066 0-3.038-.199-.485-.492-.931-.87-1.309l-43.848-43.848c.728-.724 1.18-1.726 1.18-2.835 0-11.887-5.617-23.32-15.023-30.586l-2.136-1.65.843-.842zm-85.418-77.394 50.5 50.5-6.377 6.379-11.211-11.211-39.289-39.289zm59.246 66.683 4.041 3.122-3.119 3.119-3.829-3.829zm-12.359 10.254 3.27-2.713 4.355 4.355-10.389 10.389-4.022-4.023c1.794-3.038 4.052-5.742 6.786-8.008zm45.047 101.407v4.016h-7.922c-.027 0-.05-.016-.078-.016v-4zm16 0v4.016h-8v-4.016zm-32 4.015h-8v-4.016h8zm-16 23.985c2.207 0 4 1.793 4 4v11.723h-8v-11.723c0-2.207 1.793-4 4-4zm-17.4-101.075h5.361c-.165 10.029-.993 43.418-4.817 65.074h-21.417c10.514-18.669 17.533-40.523 20.873-65.074zm-38.6 77.09v-4.016h8v4.016zm16 0v-4.016h8v4.016h-4zm16.077 0c-.027 0-.05-.016-.077-.016v-4h8v4.016zm15.923-4.015h8v4.016h-8zm-.735-8c.833-4.963 1.519-10.412 2.085-16h13.624c.596 5.601 1.312 11.045 2.166 16zm4.735-24v-12c0-2.207 1.793-4 4-4s4 1.793 4 4v12zm8.694-23.041c-1.443-.616-3.029-.959-4.694-.959-1.61 0-3.143.329-4.547.907.326-7.932.459-14.425.513-17.981h4.556c-.164.442-.276.906-.276 1.387 0 1.062.422 2.078 1.172 2.828l2.959 2.959c-.024.202-.107.386-.1.596.099 2.952.236 6.445.417 10.263zm3.284-26.034h-20.777l13.033-13.033 10.389 10.389zm-79.945 47.856-6.377-6.379 50.5-50.5 6.377 6.379zm.189 33.219h7.777v4.016h-5.145zm24.153 12.015h7.625v8.637zm79.625 43.985h-64v-43.984h4v19.984c0 2.211 1.791 4 4 4s4-1.789 4-4v-19.984h16v8.721c-4.646 1.656-8 6.055-8 11.263v15.723c0 2.211 1.791 4 4 4h16c2.211 0 4-1.789 4-4v-15.723c0-5.208-3.354-9.606-8-11.263v-8.721h16v19.984c0 2.211 1.789 4 4 4s4-1.789 4-4v-19.984h4zm8-35.707v-8.278h7.205zm21.961-16.278h-5.961v-4.016h8.594zm-37.813-49.465c3.887 13.604 9.02 26.132 15.162 37.449h-22.042c-2.712-14.922-4.049-35.253-4.689-49.699l11.512 11.512c.021.248-.013.491.057.738zm36.254 24.262-50.5-50.5 6.378-6.375 50.5 50.5zm-47.719-80.144c6.306 4.876 10.439 12.115 11.572 19.931l-5.146-5.146c-.001-.001-.002-.001-.003-.002l-13.215-13.215 3.845-3.845zm15.629-8.102-6.375-6.375 50.5-50.5 6.375 6.375z"/></svg>