<?xml version="1.0"?>
<svg xmlns="http://www.w3.org/2000/svg" viewBox="0 0 512 512" width="512" height="512"><g id="Out_line" data-name="Out line"><rect x="336" y="312" width="16" height="24"/><rect x="256" y="360" width="16" height="24"/><rect x="416" y="360" width="16" height="24"/><path d="M495.87109,382.56885,480,295.27783V243.8501a248.18427,248.18427,0,0,0-6.59229-56.792L452.97,100.17761a24,24,0,1,0-25.93994,0l-6.32471,26.88556L404.97009,60.17755a24,24,0,1,0-25.94018,0L362.3125,131.23779A388.53865,388.53865,0,0,0,352,220.1001V254.549l-.50928-1.35809a8.00017,8.00017,0,0,0-14.98144,0L336,254.549V220.1001a388.53865,388.53865,0,0,0-10.3125-88.86231L308.97009,60.17755a24,24,0,1,0-25.94018,0l-15.7345,66.884-6.3252-26.884a24,24,0,1,0-25.94018.00012l-20.43726,86.87952A248.17281,248.17281,0,0,0,208,243.8501v51.42773l-2.26562,12.46076-6.38135-14.89A7.99956,7.99956,0,0,0,192,288H48a7.99956,7.99956,0,0,0-7.353,4.84863l-24,56A7.99947,7.99947,0,0,0,16,352V488a7.99977,7.99977,0,0,0,8,8H488a7.99977,7.99977,0,0,0,8-8V384A7.992,7.992,0,0,0,495.87109,382.56885ZM456,339.27783V272H440v44.59009l-8-22V256h32v39.27783ZM463.94409,240H432V220.1001a389.13289,389.13289,0,0,0-3.8822-54.67328L440,114.91614l17.833,75.807A232.13447,232.13447,0,0,1,463.94409,240ZM440,72a8,8,0,1,1-8,8A8.00917,8.00917,0,0,1,440,72ZM392,32a8,8,0,1,1-8,8A8.00917,8.00917,0,0,1,392,32ZM377.8877,134.90186,392,74.91479l14.11328,59.98951c2.4082,10.22216,4.40381,20.68164,5.93311,31.09326.00879.0708.01806.1416.02832.2124A372.93927,372.93927,0,0,1,416,220.1001V240H368V220.1001A372.49809,372.49809,0,0,1,377.8877,134.90186ZM368,296V256h48v38.59009l-16,44V272H384v67.88232L367.54419,296Zm-80-24v66.59009l-16-44V256h48v40h.45581L304,339.88232V272Zm-56,0v67.27783l-8-44V256h32v38.59009l-8,22V272ZM296,32a8,8,0,1,1-8,8A8.00917,8.00917,0,0,1,296,32Zm0,42.915,14.1123,59.98682A372.49809,372.49809,0,0,1,320,220.1001V240H272V220.1001a372.99769,372.99769,0,0,1,3.92529-53.8999c.00733-.04981.01416-.09913.02051-.14942,1.52979-10.42822,3.52881-20.90723,5.9419-31.14892ZM248,72a8,8,0,1,1-8,8A8.00917,8.00917,0,0,1,248,72Zm.00024,42.91492,11.88233,50.50341A389.123,389.123,0,0,0,256,220.1001V240H224.05591a232.11967,232.11967,0,0,1,6.11157-49.27783Zm-47.45092,221.342-3.2323,17.77734a8.00186,8.00186,0,1,0-2.4408,13.42407l-2.74731,15.11054A7.992,7.992,0,0,0,192,384v.00024a7.97482,7.97482,0,0,0-5.65674,2.343l-7.0293,7.0293c-1.15905,1.15906-2.25292,2.36481-3.314,3.59247V353.64209l16-37.3335ZM168,331.69159,156.1322,304h23.7356Zm-48,0L108.1322,304h23.7356Zm-48,0L60.1322,304H83.8678Zm8,21.9505,16-37.3335,16,37.3335V396.965c-1.061-1.22766-2.15491-2.43341-3.314-3.59247l-7.0293-7.0293a8,8,0,0,0-11.31348,0l-7.0293,7.0293c-1.159,1.15906-2.25292,2.36481-3.314,3.59247Zm48,0,16-37.3335,16,37.3335V396.965c-1.061-1.22766-2.15491-2.43341-3.314-3.59247l-7.0293-7.0293a8,8,0,0,0-11.31348,0l-7.0293,7.0293c-1.15905,1.15906-2.25292,2.36481-3.314,3.59247Zm-96,0,16-37.3335,16,37.3335V396.965c-1.061-1.22766-2.15491-2.43341-3.314-3.59247l-7.0293-7.0293a8,8,0,0,0-11.31348,0l-7.0293,7.0293C34.15491,394.53162,33.061,395.73737,32,396.965ZM32,440a49.61468,49.61468,0,0,1,14.62744-35.314L48,403.31348l1.37256,1.37256A49.61468,49.61468,0,0,1,64,440v40H32Zm48,0a49.61468,49.61468,0,0,1,14.62744-35.314L96,403.31348l1.37256,1.37256A49.61468,49.61468,0,0,1,112,440v40H80Zm48,0a49.61468,49.61468,0,0,1,14.62744-35.314L144,403.31348l1.37256,1.37256A49.61468,49.61468,0,0,1,160,440v40H128Zm48,0a49.61468,49.61468,0,0,1,14.62744-35.314L192,403.31348V424a8,8,0,0,0,0,16v40H176Zm32-55.27881,8-44,8,44V480H208Zm32,.68848,24-66,24,66V480H272V448H256v32H240Zm64,.041,40-106.6665,40,106.6665V480H368V448H352v32H336V448H320v32H304Zm96-.041,24-66,24,66V480H432V448H416v32H400ZM480,480H464V384.72119l8-44,8,44Z"/><path d="M328,424h32a7.99977,7.99977,0,0,0,8-8V368a24,24,0,0,0-48,0v48A7.99977,7.99977,0,0,0,328,424Zm8-56a8,8,0,0,1,16,0v40H336Z"/><circle cx="48" cy="432" r="8"/><circle cx="96" cy="432" r="8"/><circle cx="144" cy="432" r="8"/><circle cx="48" cy="360" r="8"/><circle cx="96" cy="360" r="8"/><circle cx="144" cy="360" r="8"/></g></svg>
