<?xml version="1.0"?>
<svg xmlns="http://www.w3.org/2000/svg" id="outline" viewBox="0 0 512 512" width="512" height="512"><path d="M496,265.8374a45.94114,45.94114,0,0,0-29.01807-42.86084,43.43729,43.43729,0,0,1-20.99414-17.8789l-15.12793-25.21338a7.99959,7.99959,0,0,0-13.71972,0l-15.12793,25.21289a43.4357,43.4357,0,0,1-20.99414,17.87939A46.15194,46.15194,0,0,0,376,306.31836v12.53857a46.4348,46.4348,0,0,0-13.01807-7.88037,43.43729,43.43729,0,0,1-20.99414-17.8789l-15.12793-25.21338A8.0001,8.0001,0,0,0,320,264V208h-.01117a7.98437,7.98437,0,0,0-1.20465-4.24023L280,141.70508V116.01361a31.23443,31.23443,0,0,0-5.36475-56.90131,12.5462,12.5462,0,0,1-7.30078-6.33154L264,46.11182V16H248V46.11182l-3.33447,6.66894a12.5462,12.5462,0,0,1-7.30078,6.33154A31.23443,31.23443,0,0,0,232,116.01361v25.69147l-38.78418,62.05469A7.98437,7.98437,0,0,0,192.01117,208H192v32.14142q-1.06851-1.4772-2.01221-3.04376l-15.12793-25.21338a7.99959,7.99959,0,0,0-13.71972,0l-15.12793,25.21289a43.4357,43.4357,0,0,1-20.99414,17.87939,46.13465,46.13465,0,0,0-19.48249,14.70069l-10.67572-17.793a7.99959,7.99959,0,0,0-13.71972,0L66.01221,277.09717a43.4357,43.4357,0,0,1-20.99414,17.87939A46.15194,46.15194,0,0,0,40,378.31836v27.01538L17.6001,435.2002A7.99948,7.99948,0,0,0,16,440v48a7.99977,7.99977,0,0,0,8,8H488a7.99977,7.99977,0,0,0,8-8V368a7.99948,7.99948,0,0,0-1.6001-4.7998L472,333.33374V306.31836A46.197,46.197,0,0,0,496,265.8374ZM386.96045,237.832a59.5264,59.5264,0,0,0,28.77148-24.50293L424,199.54932l8.26807,13.78027A59.528,59.528,0,0,0,461.03955,237.832,30.16267,30.16267,0,0,1,449.8374,296H398.1626a30.16267,30.16267,0,0,1-11.20215-58.168ZM460,344l12.00006,16H391.57648a46.00832,46.00832,0,0,0-.626-16ZM328,448v-8a8,8,0,0,1,16,0v8Zm-32,0v-8a8,8,0,0,1,16,0v8Zm-32,0v-8a8,8,0,0,1,16,0v8Zm-96-3.31348-24-24V408h48v12.68652ZM142.1626,344h51.6748A46.32394,46.32394,0,0,0,200,343.57642v22.5542a23.94411,23.94411,0,0,0-32,0,23.94411,23.94411,0,0,0-32,0v-22.5542A46.32394,46.32394,0,0,0,142.1626,344ZM208,216h40v13.33368L225.6001,259.2002a7.98554,7.98554,0,0,0-1.51355,3.72937,46.4317,46.4317,0,0,0-13.10462-7.953c-1.01233-.4049-2.00567-.85241-2.98193-1.33288Zm40.0368,136H240V266.6665l16-21.333,16,21.333v46.6731A45.88406,45.88406,0,0,0,248.0368,352ZM144,392v-8a8,8,0,0,1,16,0v8Zm32-8a8,8,0,0,1,16,0v8H176Zm32,0a8,8,0,0,1,16,0v8H208Zm80-112h16v11.11768l-5.98779,9.97949A43.28629,43.28629,0,0,1,288,304.54163Zm16-16H283.99976L264,229.33368V216h40Zm-80,96h-8V338.31836a46.35254,46.35254,0,0,0,8-5.57971Zm-96,32v8H112v-8a8,8,0,0,1,16,0Zm-16,24h16v12.68652l-16,16Zm96,0h16v28.68652l-16-16Zm32-8V384a23.90073,23.90073,0,0,0-6.13055-16h16.36212A46.38991,46.38991,0,0,0,272,394.31836V416a24.02687,24.02687,0,0,0-24,24v40h-8Zm96,16a23.90056,23.90056,0,0,0-16,6.13062,23.94411,23.94411,0,0,0-32,0v-22.5542A46.32394,46.32394,0,0,0,294.1626,400h51.6748A46.32394,46.32394,0,0,0,352,399.57642v22.5542A23.90056,23.90056,0,0,0,336,416Zm24,24a8,8,0,0,1,16,0v8H360Zm72,40H400V451.314l16-16,16,16Zm16-28.686,16-16,16,16V480H448Zm21.65674-32.9707a8,8,0,0,0-11.31348,0L440,436.68652l-18.34326-18.34326a8,8,0,0,0-11.31348,0l-18.5509,18.55091A24.03061,24.03061,0,0,0,368,416V394.31836A46.49081,46.49081,0,0,0,386.31842,376H480v16h-8v16h8v20.68652ZM328.26807,301.32959A59.528,59.528,0,0,0,357.03955,325.832,30.16267,30.16267,0,0,1,345.8374,384H294.1626a30.16267,30.16267,0,0,1-11.20215-58.168,59.5264,59.5264,0,0,0,28.77148-24.50293L319.72955,288H320v-.45068ZM264,200V152h3.56592l30,48Zm0-64H248V120h16ZM242.42432,74.291A28.42336,28.42336,0,0,0,256,64.68213,28.42336,28.42336,0,0,0,269.57568,74.291,15.24572,15.24572,0,0,1,264.75439,104H247.24561a15.24572,15.24572,0,0,1-4.82129-29.709ZM244.43408,152H248v48H214.43408ZM130.96045,269.832a59.5264,59.5264,0,0,0,28.77148-24.50293L168,231.54932l8.26807,13.78027A59.528,59.528,0,0,0,205.03955,269.832,30.16267,30.16267,0,0,1,193.8374,328H142.1626a30.16267,30.16267,0,0,1-11.20215-58.168Zm-80,40A59.5264,59.5264,0,0,0,79.73193,285.3291L88,271.54932l8.26807,13.77978c.32806.54688.67279,1.08545,1.01941,1.6228A46.22657,46.22657,0,0,0,120,338.31836V360a23.94309,23.94309,0,0,0-17.86945,8H62.1626a30.16267,30.16267,0,0,1-11.20215-58.168ZM62.1626,384H96v16H56V383.57642A46.32394,46.32394,0,0,0,62.1626,384ZM52,416H96v24a31.92485,31.92485,0,0,0-24,10.86768,31.91632,31.91632,0,0,0-40-6.56275V442.6665ZM32,472a16,16,0,0,1,32,0v8H32Zm48,0a16.01833,16.01833,0,0,1,16-16v24H80Zm32-12.68652L136,435.314l24,23.99952V480H112ZM176,480V459.314l24-24,24,23.99952V480Zm200,0H264V464H376Zm80-152H392V311.57642A46.32394,46.32394,0,0,0,398.1626,312h51.6748A46.32394,46.32394,0,0,0,456,311.57642Z"/><rect x="408" y="392" width="16" height="16"/><rect x="440" y="392" width="16" height="16"/><rect x="376" y="392" width="16" height="16"/></svg>
