<?xml version="1.0" encoding="iso-8859-1"?>
<!-- Generator: Adobe Illustrator 19.0.0, SVG Export Plug-In . SVG Version: 6.00 Build 0)  -->
<svg version="1.1" id="Capa_1" xmlns="http://www.w3.org/2000/svg" xmlns:xlink="http://www.w3.org/1999/xlink" x="0px" y="0px"
	 viewBox="0 0 512 512" style="enable-background:new 0 0 512 512;" xml:space="preserve">
<g>
	<g>
		<rect x="59.442" width="14.985" height="14.985"/>
	</g>
</g>
<g>
	<g>
		<path d="M66.935,202.302c-12.394,0-22.478,10.083-22.478,22.478v32.468h44.956v-32.468
			C89.413,212.386,79.329,202.302,66.935,202.302z M74.427,242.263H59.442v-17.483c0-4.132,3.361-7.493,7.493-7.493
			s7.493,3.361,7.493,7.493V242.263z"/>
	</g>
</g>
<g>
	<g>
		<path d="M66.935,299.54c-12.394,0-22.478,10.083-22.478,22.478v32.468h44.956v-32.468C89.413,309.624,79.329,299.54,66.935,299.54
			z M74.427,339.501H59.442v-17.483c0-4.132,3.361-7.493,7.493-7.493s7.493,3.361,7.493,7.493V339.501z"/>
	</g>
</g>
<g>
	<g>
		<path d="M66.935,403.106c-12.394,0-22.478,10.083-22.478,22.478v32.468h44.956v-32.468
			C89.413,413.189,79.329,403.106,66.935,403.106z M74.427,443.067H59.442v-17.483c0-4.132,3.361-7.493,7.493-7.493
			s7.493,3.361,7.493,7.493V443.067z"/>
	</g>
</g>
<g>
	<g>
		<path d="M498.513,173.663v-52.781c0-23.293-34.089-53.474-44.956-62.503V29.971h-14.985v28.408
			c-10.867,9.029-44.956,39.211-44.956,62.503v52.781h-13.986v14.985h13.986v82.253h-13.986v14.985h13.986v17.317h-38.28
			l-57.138-46.898L256.5,17.355l-41.698,238.952l-57.138,46.897h-38.28v-17.316h12.987v-14.985h-12.987V188.65h12.987v-14.985
			h-12.987v-52.782c0-23.293-34.089-53.474-44.956-62.503V29.971H59.442v28.408c-10.867,9.029-44.956,39.211-44.956,62.503v52.781
			H0.5v14.985h13.986v82.253H0.5v14.985h13.986v82.254H0.5v14.985h13.986V512h484.027V383.126H511.5v-14.985h-12.987v-82.253H511.5
			v-14.985h-12.987V188.65H511.5v-0.001v-14.985H498.513z M263.992,147.464l16.45,94.269l-16.45-13.502V147.464z M249.007,147.464
			v80.766l-16.45,13.502L249.007,147.464z M256.5,241.467l75.218,61.737H181.282L256.5,241.467z M59.442,120.882
			c0-11.081,3.799-25.564,7.496-37.031c3.693,11.459,7.49,25.934,7.49,37.031v52.781H59.442V120.882z M29.471,120.882
			c0-8.684,9.55-21.639,20.695-33.371c-3.09,10.88-5.709,23.117-5.709,33.371v52.781H29.471V120.882z M104.398,497.015H29.471
			V383.126h74.927V497.015z M104.398,368.141H29.471v-82.253h74.927V368.141z M104.398,270.902H29.471V188.65h74.927V270.902z
			 M104.398,173.663H89.413v-52.781c0-10.254-2.619-22.491-5.709-33.371c11.145,11.733,20.695,24.688,20.695,33.371V173.663z
			 M393.616,497.015H119.383V318.189h274.232V497.015z M438.572,120.882c0-11.081,3.799-25.564,7.496-37.031
			c3.693,11.459,7.49,25.934,7.49,37.031v52.781h-14.985V120.882z M408.601,120.882c0-8.684,9.55-21.639,20.695-33.371
			c-3.09,10.88-5.709,23.117-5.709,33.371v52.781h-14.985V120.882z M483.528,497.015h-74.927V383.126h74.927V497.015z
			 M483.528,368.141h-74.927v-82.253h74.927V368.141z M483.528,270.902h-74.927V188.65h74.927V270.902z M483.528,173.663h-14.985
			v-52.781c0-10.254-2.619-22.491-5.709-33.371c11.145,11.733,20.695,24.688,20.695,33.371V173.663z"/>
	</g>
</g>
<g>
	<g>
		<rect x="438.572" width="14.985" height="14.985"/>
	</g>
</g>
<g>
	<g>
		<path d="M446.064,202.302c-12.394,0-22.478,10.083-22.478,22.478v32.468h44.956v-32.468
			C468.542,212.386,458.458,202.302,446.064,202.302z M453.557,242.263h-14.985v-17.483c0-4.132,3.361-7.493,7.493-7.493
			s7.493,3.361,7.493,7.493V242.263z"/>
	</g>
</g>
<g>
	<g>
		<path d="M446.064,299.54c-12.394,0-22.478,10.083-22.478,22.478v32.468h44.956v-32.468
			C468.542,309.624,458.458,299.54,446.064,299.54z M453.557,339.501h-14.985v-17.483c0-4.132,3.361-7.493,7.493-7.493
			s7.493,3.361,7.493,7.493V339.501z"/>
	</g>
</g>
<g>
	<g>
		<path d="M446.064,403.106c-12.394,0-22.478,10.083-22.478,22.478v32.468h44.956v-32.468
			C468.542,413.189,458.458,403.106,446.064,403.106z M453.557,443.067h-14.985v-17.483c0-4.132,3.361-7.493,7.493-7.493
			s7.493,3.361,7.493,7.493V443.067z"/>
	</g>
</g>
<g>
	<g>
		<path d="M256.5,336.172c-26.165,0-47.454,21.288-47.454,47.454v66.435h94.907v-66.435
			C303.953,357.46,282.665,336.172,256.5,336.172z M249.007,435.075h-24.976v-31.969h24.976V435.075z M249.007,388.121h-24.976
			v-4.496c0-15.324,10.675-28.193,24.976-31.586V388.121z M288.968,435.075h-24.976v-31.969h24.976V435.075z M288.968,388.121
			h-24.976v-36.082c14.301,3.393,24.976,16.262,24.976,31.586V388.121z"/>
	</g>
</g>
<g>
	<g>
		<rect x="293.963" y="468.043" width="14.985" height="14.985"/>
	</g>
</g>
<g>
	<g>
		<rect x="174.08" y="468.043" width="14.985" height="14.985"/>
	</g>
</g>
<g>
	<g>
		<rect x="353.904" y="468.043" width="14.985" height="14.985"/>
	</g>
</g>
<g>
	<g>
		<rect x="323.934" y="468.043" width="14.985" height="14.985"/>
	</g>
</g>
<g>
	<g>
		<rect x="204.051" y="468.043" width="14.985" height="14.985"/>
	</g>
</g>
<g>
	<g>
		<rect x="144.109" y="468.043" width="14.985" height="14.985"/>
	</g>
</g>
<g>
	<g>
		<rect x="263.992" y="468.043" width="14.985" height="14.985"/>
	</g>
</g>
<g>
	<g>
		<rect x="234.021" y="468.043" width="14.985" height="14.985"/>
	</g>
</g>
<g>
	<g>
		<rect x="144.109" y="424.086" width="14.985" height="14.985"/>
	</g>
</g>
<g>
	<g>
		<rect x="174.08" y="424.086" width="14.985" height="14.985"/>
	</g>
</g>
<g>
	<g>
		<rect x="144.109" y="380.129" width="14.985" height="14.985"/>
	</g>
</g>
<g>
	<g>
		<rect x="174.08" y="380.129" width="14.985" height="14.985"/>
	</g>
</g>
<g>
	<g>
		<rect x="322.185" y="424.086" width="14.985" height="14.985"/>
	</g>
</g>
<g>
	<g>
		<rect x="352.156" y="424.086" width="14.985" height="14.985"/>
	</g>
</g>
<g>
	<g>
		<rect x="352.156" y="380.129" width="14.985" height="14.985"/>
	</g>
</g>
<g>
	<g>
		<rect x="322.185" y="380.129" width="14.985" height="14.985"/>
	</g>
</g>
<g>
	<g>
		<rect x="144.109" y="336.172" width="14.985" height="14.985"/>
	</g>
</g>
<g>
	<g>
		<rect x="174.08" y="336.172" width="14.985" height="14.985"/>
	</g>
</g>
<g>
	<g>
		<rect x="352.156" y="336.172" width="14.985" height="14.985"/>
	</g>
</g>
<g>
	<g>
		<rect x="322.185" y="336.172" width="14.985" height="14.985"/>
	</g>
</g>
<g>
	<g>
		<polygon points="256.5,260.853 231.053,281.739 240.562,293.322 256.5,280.24 272.437,293.322 281.946,281.739 		"/>
	</g>
</g>
<g>
</g>
<g>
</g>
<g>
</g>
<g>
</g>
<g>
</g>
<g>
</g>
<g>
</g>
<g>
</g>
<g>
</g>
<g>
</g>
<g>
</g>
<g>
</g>
<g>
</g>
<g>
</g>
<g>
</g>
</svg>
